<?xml version="1.0" encoding="UTF-8"?>
<svg version="1.1" xmlns="http://www.w3.org/2000/svg" width="400" height="400">
<path d="M0 0 C132 0 264 0 400 0 C400 132 400 264 400 400 C268 400 136 400 0 400 C0 268 0 136 0 0 Z " fill="#000000" transform="translate(0,0)"/>
<path d="M0 0 C7.82652158 -0.16546536 15.65300401 -0.29028675 23.48069191 -0.38559341 C28.13028955 -0.44427191 32.77725876 -0.52472322 37.42538929 -0.65706825 C41.80122722 -0.78127633 46.17432825 -0.84809133 50.55182362 -0.87263489 C52.14760989 -0.89163525 53.74331821 -0.931193 55.33798695 -0.99385452 C67.95009725 -1.47219591 67.95009725 -1.47219591 73.26016712 2.93805504 C76.33846957 5.84938544 78.99631028 9.04823758 81.6997118 12.30533409 C82.98182474 13.48506995 84.28647167 14.64233812 85.6372118 15.74283409 C89.35928873 18.90543391 92.76837252 22.33504105 96.1997118 25.80533409 C100.17757787 29.82830708 104.19308681 33.68226595 108.5122118 37.34049034 C113.79732222 42.08765202 118.71224938 47.24944612 123.6997118 52.30533409 C122.34913066 55.31921482 120.84366405 57.40880179 118.5043993 59.73111534 C117.8753368 60.35888878 117.2462743 60.98666222 116.5981493 61.63345909 C115.93041492 62.28830284 115.26268055 62.94314659 114.5747118 63.61783409 C113.88893055 64.29717003 113.2031493 64.97650597 112.4965868 65.67642784 C108.74972727 69.36630091 104.94189804 72.91717726 100.9184618 76.30533409 C96.85425749 79.9688422 93.06145068 83.91694972 89.22095203 87.81241417 C85.30496725 91.76601933 81.33711298 95.50835611 76.92236805 98.91080284 C75.2602119 100.49751383 75.2602119 100.49751383 75.6997118 104.30533409 C77.14681 106.2127582 77.14681 106.2127582 79.17236805 107.94986534 C80.27548328 108.96596886 80.27548328 108.96596886 81.40088367 110.00259972 C82.18012196 110.70062706 82.95936024 111.3986544 83.7622118 112.11783409 C85.27488757 113.49829656 86.78661577 114.8797981 88.29736805 116.26236534 C89.41716053 117.28064415 89.41716053 117.28064415 90.55957508 118.31949425 C92.51029056 120.12956951 94.39286378 121.9823228 96.25830555 123.87955284 C99.25361947 126.91360484 102.4033997 129.71233405 105.6293993 132.4977169 C109.23024199 135.64166022 112.71191648 138.9121407 116.1997118 142.18033409 C116.92674305 142.85580284 117.6537743 143.53127159 118.4028368 144.22720909 C119.08861805 144.86916222 119.7743993 145.51111534 120.4809618 146.17252159 C121.10035633 146.75114952 121.71975086 147.32977745 122.35791492 147.92593956 C123.6997118 149.30533409 123.6997118 149.30533409 123.6997118 150.30533409 C116.26774359 150.63267004 108.83653799 150.8799088 101.39896011 151.0307045 C97.94295611 151.10317091 94.49194903 151.20101521 91.03882313 151.36148643 C65.68866546 152.5091405 65.68866546 152.5091405 57.47707081 145.42682457 C55.13447985 143.04520204 53.00373284 140.57923336 50.97977161 137.92256737 C49.2828145 135.77862418 47.31901562 134.08453499 45.1997118 132.36783409 C42.13073791 129.72878111 39.29610636 126.91893664 36.4575243 124.03580284 C34.09787204 121.71285628 31.60154223 119.57192659 29.09424305 117.41080284 C25.93654391 114.63429414 22.84906785 111.78514953 19.7622118 108.93033409 C19.18197254 108.39384239 18.60173328 107.85735069 18.00391102 107.30460167 C13.87230203 103.47792432 13.87230203 103.47792432 12.6997118 102.30533409 C10.70006198 102.21775406 8.6973507 102.19836833 6.69580555 102.20767784 C5.48086414 102.2109005 4.26592274 102.21412315 3.01416492 102.21744347 C1.73477039 102.22582237 0.45537586 102.23420128 -0.8627882 102.24283409 C-2.78768078 102.24960167 -2.78768078 102.24960167 -4.75146008 102.25650597 C-7.93444842 102.26833864 -11.11734582 102.28482341 -14.3002882 102.30533409 C-3.8276587 129.45777472 12.44870622 149.93848542 38.6997118 163.30533409 C39.53889149 163.74877159 40.37807117 164.19220909 41.24268055 164.64908409 C49.36363659 168.67884745 57.88264467 170.46619126 66.6997118 172.30533409 C67.87920399 172.59730675 67.87920399 172.59730675 69.0825243 172.89517784 C95.42420156 177.02335114 121.92181593 169.50224799 143.5903368 154.58267784 C148.30166962 151.13204087 152.5656214 147.42573545 156.6997118 143.30533409 C157.51955555 142.50869347 158.3393993 141.71205284 159.1840868 140.89127159 C168.59559472 131.2167091 174.98281691 119.88372047 179.6997118 107.30533409 C185.9697118 107.30533409 192.2397118 107.30533409 198.6997118 107.30533409 C191.87064068 134.62161859 171.50348661 159.13195191 147.7778368 173.78189659 C139.17007041 178.89039138 130.22122919 183.19180014 120.6997118 186.30533409 C119.96252918 186.54800011 119.22534657 186.79066612 118.46582508 187.04068565 C88.32643603 196.52288101 55.60588789 192.38696915 27.64722157 178.41641808 C1.5728313 164.77641519 -18.84658311 141.82140842 -29.3002882 114.30533409 C-30.12436543 111.35580879 -30.87420126 108.41453787 -31.5268507 105.42252159 C-31.90970226 104.37451378 -31.90970226 104.37451378 -32.3002882 103.30533409 C-33.7852882 102.81033409 -33.7852882 102.81033409 -35.3002882 102.30533409 C-36.80994089 100.55247606 -38.23332807 98.72488882 -39.6127882 96.86783409 C-40.497325 95.68878808 -41.3827972 94.51044342 -42.2690382 93.33267784 C-42.74985851 92.69056358 -43.23067883 92.04844933 -43.72606945 91.38687706 C-47.22051612 86.76627342 -50.81638181 82.22293078 -54.38939953 77.66300011 C-64.3002882 64.96162588 -64.3002882 64.96162588 -64.3002882 63.30533409 C-46.27524778 62.67955565 -28.26905236 62.23103373 -10.2321043 62.29755211 C-5.01252991 62.31319946 0.20708657 62.30436403 5.42667484 62.29848289 C9.86594112 62.29602603 14.30412058 62.31082687 18.74316883 62.35660362 C23.15543233 62.40100104 27.56579717 62.40140998 31.97816563 62.37247276 C33.6278546 62.36942475 35.27765994 62.38197306 36.92708683 62.41153526 C45.15424596 62.55162192 51.29400992 62.52966341 57.77539539 56.73892784 C59.12404115 55.29796349 60.44889461 53.83199057 61.6997118 52.30533409 C60.13896431 47.31094213 57.80581088 42.62205743 53.6997118 39.30533409 C49.41417181 38.18688201 45.26434598 38.37770848 40.86060047 38.52750206 C38.87518141 38.54525683 36.88976218 38.56299795 34.90433848 38.58022618 C32.7770665 38.60612364 30.65098415 38.65156917 28.52416515 38.70221138 C24.08116422 38.80561619 19.63919493 38.84114046 15.19514942 38.86517906 C3.35903096 38.93934587 -8.4756551 39.09540462 -20.31010026 39.30664837 C-28.08928497 39.44541658 -35.8666307 39.54390565 -43.64709777 39.56624329 C-47.33872678 39.57950036 -51.02563315 39.62018784 -54.7158556 39.72622871 C-77.1255625 40.35506084 -77.1255625 40.35506084 -82.38007069 36.96254539 C-86.02857306 33.27658571 -87.58639206 29.12124026 -89.3002882 24.30533409 C-90.49330378 22.3123448 -91.72672524 20.3421707 -93.02294445 18.41470909 C-94.13740914 16.62898879 -95.2507163 14.8425455 -96.3627882 13.05533409 C-96.94222179 12.1336544 -97.52165539 11.21197472 -98.11864758 10.26236534 C-98.66456554 9.38451378 -99.21048351 8.50666222 -99.77294445 7.60220909 C-100.26029064 6.82200401 -100.74763683 6.04179893 -101.24975109 5.23795128 C-102.3002882 3.30533409 -102.3002882 3.30533409 -102.3002882 1.30533409 C-96.95265078 1.23099287 -91.60499257 1.15830278 -86.25731945 1.08658409 C-84.99555889 1.06963021 -84.99555889 1.06963021 -83.70830822 1.05233383 C-73.26150351 0.91299086 -62.81469922 0.78804455 -52.36742687 0.68936729 C-51.38051263 0.67997155 -50.39359838 0.67057581 -49.37677765 0.66089535 C-45.31043595 0.62229538 -41.2440941 0.58378067 -37.17773914 0.54660034 C-24.78329297 0.43192257 -12.39220082 0.26418413 0 0 Z " fill="#D50700" transform="translate(117.30028820037842,128.69466590881348)"/>
<path d="M0 0 C2.41386357 2.22639748 4.7676084 4.50503838 7.11230469 6.80444336 C7.82515625 7.49022461 8.53800781 8.17600586 9.27246094 8.88256836 C12.46807798 12.00355316 15.50878162 15.15951107 18.11230469 18.80444336 C18.11230469 19.46444336 18.11230469 20.12444336 18.11230469 20.80444336 C48.14230469 20.80444336 78.17230469 20.80444336 109.11230469 20.80444336 C106.86398149 26.42525135 106.86398149 26.42525135 104.64355469 29.30053711 C104.15951172 29.93491699 103.67546875 30.56929687 103.17675781 31.22290039 C102.66048828 31.88918457 102.14421875 32.55546875 101.61230469 33.24194336 C100.52767029 34.66412912 99.44436083 36.08732622 98.36230469 37.51147461 C97.81832031 38.2264209 97.27433594 38.94136719 96.71386719 39.67797852 C94.29389698 42.8910792 91.94536919 46.15291251 89.61230469 49.42944336 C89.21591797 49.9843042 88.81953125 50.53916504 88.41113281 51.11083984 C86.58670574 53.6779023 84.91176924 56.17488084 83.41000366 58.94900513 C81.11230469 61.80444336 81.11230469 61.80444336 77.96377563 62.56393433 C76.09717789 62.57059616 76.09717789 62.57059616 74.19287109 62.57739258 C73.15701622 62.59333717 73.15701622 62.59333717 72.10023499 62.60960388 C69.80404835 62.63779188 67.51015107 62.62351458 65.21386719 62.60913086 C63.58423931 62.62041837 61.95462767 62.63431503 60.32504272 62.65066528 C56.0026123 62.68684607 51.68088451 62.68708357 47.3583374 62.67999268 C43.11472663 62.6791033 38.87141305 62.71173478 34.62792969 62.74194336 C29.5720918 62.77589732 24.51671635 62.80067664 19.46075439 62.79022217 C11.64637692 62.77418653 3.84104881 62.78861341 -3.97128105 62.98843956 C-7.47311112 63.07573418 -10.97518619 63.13721953 -14.47758865 63.1965065 C-16.13360446 63.23161534 -17.78941027 63.27913156 -19.44468307 63.33990097 C-32.18978637 63.80175238 -32.18978637 63.80175238 -36.37355042 61.34431458 C-38.16064092 59.589095 -39.50263612 57.88391795 -40.88769531 55.80444336 C-41.94135072 54.56303855 -43.00661678 53.3313283 -44.08691406 52.11303711 C-44.6636084 51.4451416 -45.24030273 50.77724609 -45.83447266 50.08911133 C-49.76879652 45.71129888 -53.96316301 41.58154642 -58.13256836 37.42919922 C-59.71815328 35.84904692 -61.29822974 34.2635236 -62.87792969 32.67749023 C-63.88737424 31.6687053 -64.8971283 30.66022998 -65.90722656 29.65209961 C-66.81577393 28.74468018 -67.72432129 27.83726074 -68.66040039 26.90234375 C-70.70286117 24.77697802 -70.70286117 24.77697802 -72.88769531 23.80444336 C-72.88769531 23.14444336 -72.88769531 22.48444336 -72.88769531 21.80444336 C-50.11769531 21.80444336 -27.34769531 21.80444336 -3.88769531 21.80444336 C-17.68308091 4.56021136 -42.11807268 -7.13929596 -63.85644531 -9.91040039 C-79.51607442 -11.20565163 -94.92810481 -11.35112173 -109.88769531 -6.19555664 C-111.55251953 -5.6522168 -111.55251953 -5.6522168 -113.25097656 -5.09790039 C-124.91000923 -0.97884094 -135.41092305 5.09567258 -144.80175781 13.14038086 C-146.76340097 14.7052872 -148.6054613 15.78208514 -150.88769531 16.80444336 C-150.88769531 17.46444336 -150.88769531 18.12444336 -150.88769531 18.80444336 C-158.80769531 18.80444336 -166.72769531 18.80444336 -174.88769531 18.80444336 C-155.2669944 -7.3564912 -127.72204559 -23.29522858 -95.46191406 -28.59399414 C-61.79019964 -32.78173678 -25.47251979 -22.777861 0 0 Z " fill="#EB0200" transform="translate(279.8876953125,107.195556640625)"/>
<path d="M0 0 C0.86865189 -0.00043808 1.73730377 -0.00087616 2.63227844 -0.00132751 C5.50019902 0.0007606 8.36753324 0.02409279 11.23535156 0.04760742 C13.22503337 0.05320329 15.21471932 0.05747343 17.20440674 0.06047058 C22.4389387 0.07192004 27.67322059 0.10138821 32.90765381 0.13458252 C38.2499249 0.16528115 43.59223643 0.17897548 48.93457031 0.1940918 C59.41514888 0.22625771 69.89554192 0.27745539 80.37597656 0.34057617 C79.4304031 2.09218578 78.48262728 3.84260661 77.53393555 5.5925293 C77.00638168 6.5674231 76.47882782 7.54231689 75.93528748 8.54675293 C73.94614839 12.11070092 71.74994435 15.4805209 69.43847656 18.84057617 C68.57575432 20.11741816 67.71378089 21.39476641 66.85253906 22.67260742 C66.43520508 23.28958496 66.01787109 23.9065625 65.58789062 24.54223633 C63.80472233 27.18825116 62.05027024 29.85141267 60.31347656 32.52807617 C59.765625 33.36725586 59.21777344 34.20643555 58.65332031 35.07104492 C57.44452429 37.21878343 56.914052 38.96097585 56.37597656 41.34057617 C55.80571747 41.31392883 55.23545837 41.28728149 54.6479187 41.25982666 C48.64527884 40.9917631 42.64436671 40.8123475 36.63720703 40.68139648 C34.40408157 40.621503 32.17141751 40.53994945 29.93994141 40.43530273 C15.11395331 39.429969 15.11395331 39.429969 2.05578613 45.37133789 C-0.19042387 47.44831396 -2.28990646 49.6096765 -4.31768799 51.89978027 C-6.02614199 53.78408459 -7.91646181 55.34834474 -9.91308594 56.91870117 C-10.4815625 57.37631836 -11.05003906 57.83393555 -11.63574219 58.30541992 C-12.168125 58.72952148 -12.70050781 59.15362305 -13.24902344 59.59057617 C-13.82007813 60.06108398 -14.39113281 60.5315918 -14.97949219 61.01635742 C-18.22995609 63.60315352 -19.3169139 64.34057617 -23.62402344 64.34057617 C-25.26464844 63.05541992 -25.26464844 63.05541992 -26.87402344 61.27807617 C-29.26474477 58.74583222 -31.66891945 56.35958957 -34.31152344 54.09057617 C-37.9498906 50.94019514 -41.55132881 47.75258668 -45.12402344 44.52807617 C-45.66502686 44.04757813 -46.20603027 43.56708008 -46.76342773 43.07202148 C-48.08900626 41.86954915 -49.36166004 40.60925139 -50.62402344 39.34057617 C-50.62402344 37.34057617 -50.62402344 37.34057617 -49.22558594 35.93041992 C-48.57332031 35.38514648 -47.92105469 34.83987305 -47.24902344 34.27807617 C-44.04059406 31.54978147 -40.87421977 28.78913172 -37.74902344 25.96557617 C-36.90597656 25.2050293 -36.06292969 24.44448242 -35.19433594 23.66088867 C-34.34613281 22.89518555 -33.49792969 22.12948242 -32.62402344 21.34057617 C-30.13260905 19.09752708 -27.64043407 16.85533021 -25.14746094 14.61401367 C-23.39958673 13.03930347 -21.65501206 11.46092608 -19.91308594 9.87963867 C-18.594375 8.68467773 -18.594375 8.68467773 -17.24902344 7.46557617 C-16.45753906 6.7462793 -15.66605469 6.02698242 -14.85058594 5.28588867 C-14.11582031 4.64393555 -13.38105469 4.00198242 -12.62402344 3.34057617 C-12.09597107 2.81247849 -11.5679187 2.2843808 -11.02386475 1.74028015 C-7.47543737 -0.32933499 -3.99214366 -0.05264949 0 0 Z " fill="#D40701" transform="translate(261.6240234375,191.659423828125)"/>
</svg>
